<svg width="109" height="104" viewBox="0 0 109 104" fill="none" xmlns="http://www.w3.org/2000/svg">
<path fill-rule="evenodd" clip-rule="evenodd" d="M32 0C18.7452 0 8 10.7452 8 24V80C8 93.2548 18.7452 104 32 104H85C98.2548 104 109 93.2548 109 80V24C109 10.7452 98.2548 0 85 0H32ZM53.6995 46.8773C54.1986 46.8773 54.6204 46.7822 54.965 46.592C55.3096 46.4018 55.5948 46.1641 55.8205 45.8789C56.0463 45.5936 56.2126 45.2727 56.3196 44.9161C56.4265 44.5595 56.48 44.2149 56.48 43.8821C56.48 43.5493 56.4265 43.2105 56.3196 42.8658C56.2126 42.5211 56.0522 42.2062 55.8384 41.9209C55.6245 41.6357 55.3393 41.3979 54.9828 41.2078C54.6264 41.0176 54.1986 40.9225 53.6995 40.9225H39.4764C39.0961 40.9225 38.8347 40.8512 38.6921 40.7086C38.5495 40.5659 38.4782 40.3045 38.4782 39.9241V32.971C38.4782 32.5906 38.5495 32.3351 38.6921 32.2043C38.8347 32.0736 39.0961 32.0082 39.4764 32.0082H53.4856C53.9847 32.0082 54.4065 31.9191 54.7511 31.7408C55.0957 31.5625 55.3809 31.3307 55.6066 31.0455C55.8324 30.7602 55.9928 30.4393 56.0879 30.0827C56.1829 29.7262 56.2305 29.3815 56.2305 29.0487C56.2305 28.7159 56.1829 28.3712 56.0879 28.0146C55.9928 27.6581 55.8384 27.3371 55.6245 27.0519C55.4106 26.7666 55.1254 26.5289 54.7689 26.3387C54.4125 26.1486 53.9847 26.0535 53.4856 26.0535H36.9811C35.9116 26.0535 35.0086 26.1545 34.2719 26.3566C33.5352 26.5586 32.947 26.8855 32.5074 27.3371C32.0677 27.7888 31.7469 28.3712 31.5449 29.0843C31.3429 29.7975 31.2419 30.6651 31.2419 31.6873V41.2078C31.2419 42.2537 31.3429 43.1333 31.5449 43.8464C31.7469 44.5595 32.0677 45.1419 32.5074 45.5936C32.947 46.0453 33.5352 46.3721 34.2719 46.5742C35.0086 46.7762 35.9116 46.8773 36.9811 46.8773H53.6995ZM82.6925 47.0555C83.6668 47.4597 84.6352 47.4775 85.5977 47.109C86.5602 46.7406 87.3147 46.0928 87.8613 45.1657C88.5742 43.9296 89.1268 42.325 89.5189 40.352C89.911 38.379 90.1071 36.1207 90.1071 33.5771V31.1525C90.1071 30.2729 90.0179 29.5122 89.8397 28.8704C89.6615 28.2286 89.3585 27.6997 88.9307 27.2837C88.5029 26.8677 87.9385 26.5586 87.2375 26.3566C86.5364 26.1545 85.6631 26.0535 84.6174 26.0535H68.2911C67.7445 26.0535 67.2751 26.1486 66.883 26.3387C66.4909 26.5289 66.1641 26.7666 65.9027 27.0519C65.6413 27.3371 65.4512 27.664 65.3324 28.0325C65.2135 28.4009 65.1541 28.7634 65.1541 29.12C65.1541 29.4766 65.2195 29.8391 65.3502 30.2075C65.4809 30.576 65.671 30.9088 65.9205 31.2059C66.1701 31.5031 66.4909 31.7408 66.883 31.9191C67.2751 32.0974 67.7445 32.1865 68.2911 32.1865H82.2647C82.5499 32.1865 82.7697 32.2697 82.9242 32.4361C83.0786 32.6025 83.1559 32.8165 83.1559 33.0779V33.5415C83.1559 34.7301 83.1262 35.7819 83.0668 36.6971C83.0074 37.6123 82.9064 38.4384 82.7638 39.1753C82.6212 39.9122 82.4429 40.5778 82.2291 41.1721C82.0152 41.7664 81.7656 42.3488 81.4805 42.9193C81.2666 43.3234 81.1359 43.7335 81.0883 44.1495C81.0408 44.5655 81.0705 44.9637 81.1775 45.344C81.2844 45.7243 81.4626 46.0631 81.7122 46.3602C81.9617 46.6574 82.2885 46.8891 82.6925 47.0555ZM55.9809 63.2914V81.2626H36.4107C35.3413 81.2626 34.4679 81.1735 33.7906 80.9952C33.1134 80.8169 32.5846 80.5138 32.2044 80.0859C31.8241 79.6581 31.5686 79.0935 31.4379 78.3922C31.3072 77.691 31.2419 76.8174 31.2419 75.7714V63.2201C31.2419 62.6496 31.3429 62.1623 31.5449 61.7582C31.7469 61.3541 32.0142 61.0272 32.3469 60.7776C32.6796 60.528 33.0658 60.3438 33.5055 60.2249C33.9451 60.1061 34.4026 60.0466 34.8779 60.0466C35.3294 60.0466 35.7691 60.112 36.1968 60.2427C36.6246 60.3735 37.0108 60.5696 37.3554 60.8311C37.6999 61.0926 37.9792 61.4254 38.1931 61.8295C38.4069 62.2336 38.5139 62.7209 38.5139 63.2914V65.3239H48.7089V63.2201C48.7089 62.6496 48.8099 62.1623 49.0119 61.7582C49.2139 61.3541 49.4813 61.0272 49.814 60.7776C50.1467 60.528 50.5329 60.3438 50.9725 60.2249C51.4122 60.1061 51.8696 60.0466 52.3449 60.0466C52.7965 60.0466 53.2361 60.112 53.6639 60.2427C54.0916 60.3735 54.4778 60.5696 54.8224 60.8311C55.167 61.0926 55.4462 61.4254 55.6601 61.8295C55.874 62.2336 55.9809 62.7209 55.9809 63.2914ZM48.7089 75.4862H39.6189C39.1912 75.4862 38.9001 75.397 38.7456 75.2187C38.5911 75.0405 38.5139 74.773 38.5139 74.4165V70.8864H48.7089V75.4862ZM84.7956 80.4425C83.4886 81.013 82.0271 81.2983 80.4111 81.2983H75.1709C73.5549 81.2983 72.0934 81.013 70.7864 80.4425C69.4793 79.872 68.3742 79.1113 67.4712 78.1605C66.5681 77.2096 65.873 76.1161 65.3858 74.88C64.8986 73.6439 64.6551 72.3602 64.6551 71.029V70.2446C64.6551 68.9134 64.8986 67.6297 65.3858 66.3936C65.873 65.1575 66.5681 64.064 67.4712 63.1131C68.3742 62.1623 69.4793 61.4016 70.7864 60.8311C72.0934 60.2606 73.5549 59.9753 75.1709 59.9753H80.4111C82.0271 59.9753 83.4886 60.2606 84.7956 60.8311C86.1027 61.4016 87.2137 62.1623 88.1286 63.1131C89.0436 64.064 89.7446 65.1575 90.2318 66.3936C90.719 67.6297 90.9626 68.9134 90.9626 70.2446V71.029C90.9626 72.3602 90.719 73.6439 90.2318 74.88C89.7446 76.1161 89.0436 77.2096 88.1286 78.1605C87.2137 79.1113 86.1027 79.872 84.7956 80.4425ZM78.7356 75.4505H76.8464C76.1334 75.4505 75.4858 75.3376 74.9036 75.1118C74.3214 74.8859 73.8223 74.5769 73.4064 74.1847C72.9905 73.7925 72.6638 73.3408 72.4261 72.8297C72.1885 72.3186 72.0696 71.7659 72.0696 71.1717V70.1376C72.0696 69.5433 72.1885 68.9847 72.4261 68.4617C72.6638 67.9387 72.9905 67.4811 73.4064 67.0889C73.8223 66.6967 74.3214 66.3877 74.9036 66.1618C75.4858 65.936 76.1334 65.8231 76.8464 65.8231H78.7356C79.4486 65.8231 80.0962 65.936 80.6784 66.1618C81.2607 66.3877 81.7656 66.6967 82.1934 67.0889C82.6212 67.4811 82.9539 67.9387 83.1915 68.4617C83.4292 68.9847 83.548 69.5433 83.548 70.1376V71.1717C83.548 71.7659 83.4292 72.3186 83.1915 72.8297C82.9539 73.3408 82.6212 73.7925 82.1934 74.1847C81.7656 74.5769 81.2607 74.8859 80.6784 75.1118C80.0962 75.3376 79.4486 75.4505 78.7356 75.4505Z" fill="#FFB210"/>
<rect x="1.5" y="22.5" width="13" height="8" rx="4" fill="white" stroke="#FFB210" stroke-width="3"/>
<rect x="1.5" y="39.5" width="13" height="8" rx="4" fill="white" stroke="#FFB210" stroke-width="3"/>
<rect x="1.5" y="56.5" width="13" height="8" rx="4" fill="white" stroke="#FFB210" stroke-width="3"/>
<rect x="1.5" y="73.5" width="13" height="8" rx="4" fill="white" stroke="#FFB210" stroke-width="3"/>
</svg>
